<svg xmlns="http://www.w3.org/2000/svg" width="22.436" height="22.441" viewBox="0 0 22.436 22.441">
  <path id="Icon_metro-link" data-name="Icon metro-link" d="M12.543,16.287a1.163,1.163,0,0,1-.825-.342,5.482,5.482,0,0,1,0-7.744l4.309-4.309a5.476,5.476,0,1,1,7.744,7.744l-1.97,1.97a1.167,1.167,0,1,1-1.65-1.65l1.97-1.97a3.142,3.142,0,0,0-4.443-4.443L13.368,9.852a3.145,3.145,0,0,0,0,4.443,1.167,1.167,0,0,1-.825,1.992ZM8.409,24.731a5.476,5.476,0,0,1-3.872-9.347l1.97-1.97a1.167,1.167,0,0,1,1.65,1.65l-1.97,1.97a3.142,3.142,0,0,0,4.443,4.443l4.309-4.309a3.145,3.145,0,0,0,0-4.443,1.167,1.167,0,1,1,1.65-1.65,5.482,5.482,0,0,1,0,7.744l-4.309,4.309a5.44,5.44,0,0,1-3.872,1.6Z" transform="translate(-2.936 -2.29)" fill="#fff"/>
</svg>
